HIERARCHY
ROOT pelvis
{
  OFFSET 0 100 0
  CHANNELS 6 Xposition Yposition Zposition Zrotation Xrotation Yrotation
  JOINT pelvis_right_femur
  {
    OFFSET -10.78128 -3.44521 -0.5502486
    CHANNELS 3 Zrotation Xrotation Yrotation
    JOINT right_femur_tibia
    {
      OFFSET -0.8047443 -44.0398 -0.1307829
      CHANNELS 3 Zrotation Xrotation Yrotation
      JOINT right_tibia_foot
      {
        OFFSET 3.006224 -47.83518 -5
        CHANNELS 3 Zrotation Xrotation Yrotation
        End Site
        {
          OFFSET 0 -5 15
        }
      }
    }
  }
  JOINT pelvis_left_femur
  {
    OFFSET 10.78128 -3.44521 -0.5502486
    CHANNELS 3 Zrotation Xrotation Yrotation
    JOINT left_femur_tibia
    {
      OFFSET 0.8047443 -44.0398 -0.1307829
      CHANNELS 3 Zrotation Xrotation Yrotation
      JOINT left_tibia_foot
      {
        OFFSET -4.370144 -48.10324 -4.275266
        CHANNELS 3 Zrotation Xrotation Yrotation
        End Site
        {
          OFFSET 0 -5 15
        }
      }
    }
  }
  JOINT pelvis_spine1
  {
    OFFSET 0 6.468898 -3.129235
    CHANNELS 3 Zrotation Xrotation Yrotation
    JOINT spine1
    {
      OFFSET 0 23.15396 4.99043
      CHANNELS 3 Zrotation Xrotation Yrotation
      JOINT spine2
      {
        OFFSET 0 20.79997 -5.064912
        CHANNELS 3 Zrotation Xrotation Yrotation
        JOINT neck
        {
          OFFSET 0 14.38658 9.616178
          CHANNELS 3 Zrotation Xrotation Yrotation
          End Site
          {
            OFFSET 0 20 0
          }
        }
      }
      JOINT right_manubrium
      {
        OFFSET -5.722621 16.35077 3.967754
        CHANNELS 3 Zrotation Xrotation Yrotation
        JOINT right_clavicle
        {
          OFFSET -13.16364 1.694482 -4.693211
          CHANNELS 3 Zrotation Xrotation Yrotation
          JOINT right_humerus
          {
            OFFSET -28.5034 -0.3100689 -2.792744
            CHANNELS 3 Zrotation Xrotation Yrotation
            JOINT right_radius
            {
              OFFSET -25.15693 0.02248979 -1.271978
              CHANNELS 3 Zrotation Xrotation Yrotation
              End Site
              {
                OFFSET -15 0 0
              }
            }
          }
        }
      }
      JOINT left_manubrium
      {
        OFFSET 5.722621 16.35077 3.967754
        CHANNELS 3 Zrotation Xrotation Yrotation
        JOINT left_clavicle
        {
          OFFSET 13.16364 1.694482 -4.693211
          CHANNELS 3 Zrotation Xrotation Yrotation
          JOINT left_humerus
          {
            OFFSET 29.39168 -1.063119 -2.237045
            CHANNELS 3 Zrotation Xrotation Yrotation
            JOINT left_radius
            {
              OFFSET 24.59957 -0.9528479 0.9047498
              CHANNELS 3 Zrotation Xrotation Yrotation
              End Site
              {
                OFFSET 15 -0 -0
              }
            }
          }
        }
      }
    }
  }
}
MOTION
Frames: 17
Frame Time: 0.0416666666667
2173.064 101.6997 583.1527 5.4177 6.515382 135.6143 4.619723 5.170933 4.118271 -0 17.00977 -0 -2.701856 -12.43293 -5.060176 -0.8472321 -13.14672 -5.533204 -0 50.76089 -0 -7.559999 -6.51218 17.34646 -1.653819 1.710307 5.911887 1.059799 9.668431 -3.881922 3.117507 24.71985 3.397236 2.009436 -14.32296 5.761655 3.730512 -15.38701 11.54879 81.27987 24.7337 -9.751095 -0 0 14.33138 -18.16424 11.27186 9.888291 4.017085 -17.43967 -3.412979 -90.41428 25.08555 15.24469 0 0 -12.54802 -0.5090692 11.20282 13.50517
2176.879 101.7622 578.9312 5.075473 5.978991 134.9404 3.973599 8.916247 3.445705 -0 19.62073 -0 -2.400305 -13.94386 -3.916961 -0.0868716 -17.94971 -4.981935 -0 41.6494 -0 -6.194779 -6.686787 17.80672 -1.854169 1.575735 6.10782 0.6438039 9.108471 -3.337695 3.081856 24.90946 3.245928 1.85091 -13.80728 5.638616 3.535647 -16.16799 11.43408 79.24934 25.21282 -6.359456 -0 0 16.79153 -18.90553 10.86721 10.82187 3.879974 -16.39982 -3.122155 -91.11458 25.01672 16.99526 0 0 -10.30847 -0.5743188 11.82215 13.4843
2180.781 101.6836 574.2227 4.096893 5.039093 134.5296 2.998091 12.44251 3.137112 -0 22.94899 -0 -0.8655849 -13.97175 -2.563287 0.4084467 -22.28302 -4.245191 -0 32.1031 -0 -4.60229 -6.332439 17.80155 -2.158155 0.9146862 6.663632 0.2159916 9.014403 -3.169599 2.708973 24.29687 3.450446 1.952686 -13.91377 5.343037 3.965255 -17.324 11.57839 77.10148 26.54065 -3.714718 -0 0 19.2194 -20.65384 10.95885 12.57976 3.585446 -15.72019 -3.043226 -91.2727 24.1964 19.3317 0 0 -9.343274 -0.7151247 11.29255 13.96617
2184.839 101.6839 568.8167 2.549178 4.020116 134.3345 1.563348 15.62382 3.423109 -0 26.99386 -0 1.565093 -12.43891 -1.289791 0.225733 -25.57583 -3.737311 -0 24.07379 -0 -3.002433 -5.755031 17.45015 -2.720206 -0.2428515 7.625602 -0.2105487 9.398977 -3.288182 2.111457 22.95161 4.01714 2.34392 -14.61676 4.996576 4.980919 -18.63849 11.92386 75.16297 28.2153 -2.240832 -0 0 21.32784 -23.2717 11.50902 15.00657 3.225422 -15.49278 -3.062391 -91.13317 22.95265 22.10267 0 0 -9.608066 -1.077608 9.582417 15.12676
2189.045 101.9489 562.6426 0.6566511 3.238363 134.3309 -0.3026334 18.16421 4.182392 -0 32.18624 -0 4.273638 -9.392992 -0.3588237 -1.005946 -27.41561 -4.07292 -0 18.94072 -0 -1.750825 -5.460069 16.75165 -3.605441 -1.78815 8.815119 -0.6243385 10.1291 -3.46978 1.512399 21.19314 4.87575 3.068119 -15.4885 4.702674 6.538401 -19.64068 12.40777 73.5345 29.40112 -1.971361 -0 0 23.01861 -26.29064 12.46206 17.73836 3.072407 -15.70292 -3.000976 -91.20876 21.71362 24.94518 0 0 -10.37251 -1.750493 7.374795 16.91166
2193.309 102.6624 555.774 -1.346402 2.801912 134.6047 -2.402642 19.68836 5.067002 -0 39.71615 -0 6.888602 -4.849005 0.1582376 -3.352674 -27.66006 -5.576297 -0 16.75333 -0 -0.9775761 -5.723619 15.68038 -4.743006 -3.654538 9.957445 -1.044098 11.16584 -3.627269 1.003054 19.3493 5.995149 4.189365 -16.00119 4.448998 8.724239 -19.97066 13.11629 72.06104 29.86664 -2.72863 -0 0 24.37715 -29.26881 13.85084 20.31229 3.402453 -16.37441 -2.756394 -91.75085 20.49616 27.4251 0 0 -10.82304 -2.413437 5.679289 18.47375
2197.427 103.9859 548.5166 -3.032622 2.787606 135.3496 -4.314265 19.40345 5.803017 -0 50.48049 -0 9.033068 0.777286 0.0867627 -6.435984 -25.70584 -8.099211 -0 16.55449 -0 -0.590679 -6.717866 14.60267 -5.918838 -5.559751 10.67663 -1.438128 12.50513 -3.935316 0.5215287 17.77606 7.338013 5.567692 -16.06355 4.278734 11.2759 -19.65709 14.07145 71.18378 30.15906 -4.635714 -0 0 25.28117 -31.54976 15.51604 21.95216 4.213505 -17.5169 -2.417594 -92.519 19.36506 28.99104 0 0 -10.74946 -2.644927 5.088222 18.7188
2201.015 105.8607 541.5358 -3.74769 3.260409 136.7121 -5.382635 16.14546 6.205043 -0 62.5143 -0 9.899467 5.616796 -0.6736937 -9.293499 -20.64405 -11.19686 -0 16.01243 -0 -0.4442006 -8.669939 14.32974 -6.747434 -6.802663 10.50963 -1.647729 13.82733 -4.596664 0.03241681 16.98227 8.726358 6.740035 -16.12177 4.42623 13.20696 -19.17272 14.95569 71.98021 30.79398 -7.809975 -0 0 25.40901 -31.94832 16.83686 21.70763 5.157219 -18.91376 -2.304296 -93.17518 19.25267 29.1248 0 0 -10.79367 -2.599095 5.498771 17.75685
2203.611 107.8195 535.7476 -3.154106 3.997795 138.4732 -5.060737 9.232622 6.237602 -0 69.69545 -0 8.338954 6.704524 -1.678083 -10.78574 -12.21787 -14.58352 -0 12.49831 -0 -0.255866 -11.60502 15.60487 -6.832773 -6.727844 9.211251 -1.395423 14.45151 -5.649209 -0.3941162 17.39822 9.852485 7.208002 -16.9376 5.153295 13.33289 -19.1443 15.25588 75.2142 31.8962 -12.0184 -0 0 24.30258 -29.26006 16.85428 19.08685 5.745317 -20.19253 -2.78358 -93.65827 21.66314 27.83707 0 0 -12.23183 -3.028189 6.595376 17.166
2205.097 109.1006 531.8597 -1.587256 4.330577 139.9683 -3.049034 -0.8347207 6.233221 -0 65.2226 -0 3.58274 2.192312 -2.51528 -10.21472 -1.492135 -18.24466 -0 6.699302 -0 0.09101177 -15.1882 18.36087 -5.972637 -5.247514 6.985851 -0.5089374 13.50929 -6.816884 -0.4989383 19.11584 10.20633 6.765549 -18.95891 6.40307 11.20582 -19.55758 14.4553 80.42948 33.43786 -16.57424 -0 0 21.41907 -22.8758 14.78964 14.31552 5.669779 -20.81043 -3.804021 -94.39192 27.57883 26.02911 0 0 -15.75427 -4.619684 8.67411 18.77163
2206.117 109.3422 529.5945 0.06421621 3.424022 140.7521 0.5442126 -12.20681 6.653259 -0 50.24252 -0 -2.864025 -5.109025 -3.659226 -7.854862 8.37407 -21.00357 -0 3.596069 -0 -0.09359406 -18.82279 20.71551 -4.359147 -3.009924 4.58627 0.7041958 10.87041 -7.563327 0.05981804 21.36402 9.250615 5.565304 -21.47529 7.589787 7.984013 -19.43761 12.48241 85.37319 34.97149 -20.01016 -0 0 17.19362 -14.61306 11.27409 9.041014 5.15265 -20.38742 -4.575604 -95.53176 34.87625 24.78432 0 0 -19.96851 -6.727086 11.71979 22.3376
2207.527 108.878 527.6255 1.07954 1.403557 141.1865 4.129693 -22.75258 6.782974 -0 35.2725 -0 -7.136286 -7.713143 -4.608674 -5.386186 13.79515 -20.26453 -0 4.462955 -0 -1.250805 -21.78369 20.05898 -2.757371 -1.047228 2.866411 1.846402 8.797785 -8.071644 0.7618674 22.18632 8.009565 4.38825 -23.68419 8.291198 5.557448 -18.71569 10.75646 87.874 34.84887 -21.34447 -0 0 13.82866 -10.40071 9.231571 6.71304 5.061247 -20.23419 -4.538921 -94.81443 37.11849 22.64949 0 0 -22.48238 -6.431906 13.24022 23.18286
2209.634 107.9449 524.9458 1.33704 -0.7408725 141.626 5.988905 -31.13212 5.523059 -0 23.79953 -0 -8.003301 -4.717317 -4.295303 -3.972185 15.62303 -16.82741 -0 6.113152 -0 -2.462885 -23.66651 17.03974 -1.848002 0.1343651 1.952098 2.988318 8.578566 -8.87601 0.8415576 21.22422 7.846296 3.960979 -25.59013 8.666673 4.21853 -18.15453 10.45586 88.73406 33.13313 -21.91123 -0 0 11.98187 -11.66146 9.542141 7.60994 5.727409 -21.30727 -4.057525 -91.69798 32.97714 18.77147 0 0 -23.55006 -3.003198 12.30374 18.7979
2212.424 106.6899 521.2998 0.7276955 -2.659049 142.0915 6.433898 -36.82607 3.646891 -0 13.87338 -0 -6.946801 -0.1045881 -3.327563 -3.651551 16.21554 -13.46045 -0 8.764104 -0 -3.004409 -24.50669 13.93405 -1.645345 0.4824716 1.751874 3.976069 9.111841 -9.711425 0.6256439 19.70062 8.277205 4.189416 -26.84017 8.788941 3.914041 -17.56182 11.04824 88.94928 32.13868 -22.96487 -0 0 10.6762 -14.21451 10.67705 9.096737 6.748114 -22.68576 -3.467503 -88.85915 27.10216 15.49284 0 0 -24.78396 1.26028 10.62557 12.4846
2215.793 105.2219 516.6774 -0.5368984 -3.886473 142.5615 5.99003 -39.88025 2.143147 -0 5.491036 -0 -4.593218 4.892465 -2.623937 -4.424723 16.07625 -10.71464 -0 12.35261 -0 -2.215906 -24.2942 12.22184 -1.930666 0.3810159 2.357356 4.380408 10.18173 -10.23935 0.4427165 18.22359 8.784068 4.769866 -27.10741 8.737265 4.336999 -16.99745 11.91115 89.29071 32.73976 -24.79284 -0 0 9.224991 -16.36872 12.1067 10.16543 7.82845 -24.07071 -3.407788 -86.40797 21.7822 13.18932 0 0 -27.78709 5.775717 8.280526 6.358888
2219.469 103.6257 511.4193 -2.295057 -3.963988 143.078 5.313917 -39.9614 2.171541 0 -1.081212 0 -1.66618 7.585598 -2.874504 -6.284637 15.60155 -9.305616 -0 15.10249 -0 0.4516338 -23.68872 13.38232 -2.689377 0.1575376 3.738758 4.002427 11.33784 -10.14671 0.4607794 17.45382 8.871343 5.149581 -26.35093 8.68523 5.003983 -16.60262 12.40608 90.42695 35.25335 -27.29605 -0 0 7.397504 -16.3331 13.27261 9.736888 8.705812 -25.02052 -4.06953 -84.4453 19.0184 12.12303 0 0 -32.98698 10.04574 5.909626 2.020176
2222.972 102.073 506.2568 -4.046801 -3.440476 143.8696 5.200101 -37.79429 3.786679 0 -3.911651 0 -0.307032 5.322608 -3.595938 -8.269259 15.37297 -10.19939 -0 14.29746 -0 4.017145 -23.78379 16.70054 -3.732333 0.08713179 4.857619 3.42845 11.26243 -9.446897 0.5830562 17.90142 8.353375 4.829442 -25.84161 8.868297 5.445222 -16.45543 12.16979 91.87591 38.3944 -29.21894 -0 0 6.058625 -13.27018 13.27625 7.75582 8.780502 -24.23718 -4.78744 -84.56871 20.75912 13.51645 0 0 -36.16078 12.05311 5.436151 1.327432
